<svg width="15" height="18" viewBox="0 0 15 18" xmlns="http://www.w3.org/2000/svg" xmlns:xlink="http://www.w3.org/1999/xlink"><title>DOC Icon</title><defs><path d="M8.929 1H3.003A3 3 0 0 0 0 4v11c0 1.666 1.345 3 3.003 3h7.994A3 3 0 0 0 14 15V6.07L8.929 1z" id="a"/><path d="M14.393 7h-3.39A2.996 2.996 0 0 1 8 4V.607L14.393 7z" id="b"/></defs><g fill="none" fill-rule="evenodd"><use fill="#F4FBFE" xlink:href="#a"/><path stroke="#0AF" d="M8.722 1.5L13.5 6.278V15a2.5 2.5 0 0 1-2.503 2.5H3.003A2.496 2.496 0 0 1 .5 15V4a2.5 2.5 0 0 1 2.503-2.5h5.719z"/><use fill="#F4FBFE" xlink:href="#b"/><path stroke="#0AF" d="M13.186 6.5h-2.183A2.496 2.496 0 0 1 8.5 4V1.814L13.186 6.5z"/><text font-family="SourceSansPro-Bold, Source Sans Pro" font-size="4" font-weight="bold" fill="#0AF"><tspan x="3" y="13">DOC</tspan></text></g></svg>