<svg width="50" height="50" viewBox="0 0 50 50" xmlns="http://www.w3.org/2000/svg" xmlns:xlink="http://www.w3.org/1999/xlink"><title>Icon</title><defs><path d="M25 50c13.807 0 25-11.193 25-25S38.807 0 25 0 0 11.193 0 25s11.193 25 25 25z" id="a"/></defs><g fill="none" fill-rule="evenodd"><mask id="b" fill="#fff"><use xlink:href="#a"/></mask><use fill="#FAF5D3" xlink:href="#a"/><path stroke="#E0B124" stroke-width="3" d="M25 48.5c12.979 0 23.5-10.521 23.5-23.5S37.979 1.5 25 1.5 1.5 12.021 1.5 25 12.021 48.5 25 48.5z"/><path d="M34.01 27V13h-3v2h-3v-2h-3v2h-3v-2h-3v23.424c16.02-2.003 14.468-2.881 14-4.424-.573-1.896-8-6-8-6v-6h4v6h-4s1.767.089 5 0c3.235 2.103 9.71 6.581 8 8-5.926 5.303-17.79 8.664-24 10.136V45l13 4 12-1 1-4V33c0-1.188-6-6-6-6m-29 11a733.374 733.374 0 0 0 13-1.453V13.4l-4 1.6v20.787c-3.097.366-6.72.766-11 1.213-.28.266 5 7 5 7s.386-.071 1.062-.211C7.569 41.84 4.806 38.195 5.01 38" fill="#E0B124" mask="url(#b)"/><path d="M-3.171-23L-6-20.17l50.205 50.205 2.829-2.828L-3.171-23zM-5.242 8.073l50.205 50.204 11.313-11.313L6.071-3.242-5.242 8.072z" fill="#FFF" opacity=".2" mask="url(#b)"/></g></svg>