<svg width="50" height="50" viewBox="0 0 50 50" xmlns="http://www.w3.org/2000/svg" xmlns:xlink="http://www.w3.org/1999/xlink"><title>Medal</title><defs><circle id="a" cx="25" cy="25" r="25"/></defs><g fill="none" fill-rule="evenodd"><use fill="#F9EADD" xlink:href="#a"/><circle stroke="#E49046" stroke-width="3" cx="25" cy="25" r="23.5"/><path d="M30.934 24.48c-1.77-1.465-2.644-1.452-1.846.122 1.274 2.505-1.4 4.46-1.4 4.46s-2.35-1.406-1.08-4.155c1.27-2.75 3.053-7.268.573-9.895-2.48-2.626-3.69-2.017-3.305-1.772 0 0 1.524 1.528 1.399 3.359-.128 1.833-3.883 4.766-6.616 8.43-2.736 3.666-2.035 7.086 1.716 9.224C24.13 36.39 25.147 37 25.147 37s3.719-2 6.36-4.46c2.682-2.5 1.27-6.536-.573-8.061" fill="#E49046"/></g></svg>