<svg width="50" height="50" viewBox="0 0 50 50" xmlns="http://www.w3.org/2000/svg" xmlns:xlink="http://www.w3.org/1999/xlink"><title>Medal</title><defs><circle id="a" cx="25" cy="25" r="25"/></defs><g fill="none" fill-rule="evenodd"><use fill="#E4F1FE" xlink:href="#a"/><circle stroke="#5E9BD7" stroke-width="3" cx="25" cy="25" r="23.5"/><path d="M21.15 33.778c-2.227-.986-3.384-5.523 0-9.778 0 0-1.328 4.321 1.695 8 .285.37.532 2.764-1.695 1.778m12.873-4.941c.018-.211.017-.642-.13-1.353a8.915 8.915 0 0 0-.702-2.261c-1.025-2.621-3.267-6.814-8.13-13.223-.005.004-.01.14-.015.371A3.197 3.197 0 0 0 25.03 12c-5.345 6.996-7.55 11.358-8.444 13.909a9.352 9.352 0 0 0-.222.688C15.85 28.329 16.03 29 16.03 29a9 9 0 0 0 18 0c0-.055-.007-.108-.008-.163" fill="#5E9BD7"/></g></svg>