<svg width="50" height="50" viewBox="0 0 50 50" xmlns="http://www.w3.org/2000/svg"><title>Medal</title><g fill="none" fill-rule="evenodd"><circle fill="#E9EEF4" cx="25" cy="25" r="25"/><path d="M26 14l2 6c.241.466.86.916 1 1h7c.962-.084 1.419 1.323 1 2l-6 4c-.137.099-.372.828 0 1l1 7c1.131.555-.063 1.424-1 1l-5-3c-.617-1.351-1.382-1.351-2 0l-5 3c-.937.424-2.132-.445-1-1l1-7c.373-.172.136-.901 0-1l-6-4c-.418-.677.037-2.084 1-2h7c.14-.084.758-.534 1-1l2-6c.262-1.262 1.738-1.262 2 0" fill="#BDC2CD"/></g></svg>