<svg width="50" height="50" viewBox="0 0 50 50" xmlns="http://www.w3.org/2000/svg" xmlns:xlink="http://www.w3.org/1999/xlink"><title>Medal</title><defs><circle id="a" cx="25" cy="25" r="25"/></defs><g fill="none" fill-rule="evenodd"><mask id="b" fill="#fff"><use xlink:href="#a"/></mask><use fill="#FAF5D3" xlink:href="#a"/><circle stroke="#E0B124" stroke-width="3" cx="25" cy="25" r="23.5"/><path d="M32.5 22c1.381 0 9.5-1.119 9.5-2.5a2.5 2.5 0 0 0-2.5-2.5H27.816c.112-.314.184-.647.184-1v-3a3 3 0 1 0-6 0v3c0 .353.072.686.184 1H10.5A2.5 2.5 0 0 0 8 19.5c0 1.381 8.119 2.5 9.5 2.5H19v20h-1v1h-1v5h16v-5h-1v-1h-1V22h1.5z" fill="#E0B124" mask="url(#b)"/><path d="M-3.171-13L-6-10.17l50.205 50.205 2.829-2.828L-3.171-13zm-2.071 31.072l50.205 50.204 11.313-11.313L6.071 6.758-5.242 18.072z" fill="#FFF" opacity=".2" mask="url(#b)"/></g></svg>