<svg width="61" height="17" viewBox="0 0 61 17" xmlns="http://www.w3.org/2000/svg"><title>Group</title><path d="M41.22 4.43c-.256 1.697-1.542 1.697-2.785 1.697h-.708l.497-3.17a.391.391 0 0 1 .385-.332h.325c.846 0 1.645 0 2.058.486.246.291.32.723.228 1.318M40.679 0h-4.69a.653.653 0 0 0-.643.556L33.45 12.682a.394.394 0 0 0 .386.455h2.406a.457.457 0 0 0 .45-.387l.538-3.44a.654.654 0 0 1 .644-.554h1.483c3.09 0 4.872-1.507 5.337-4.496.21-1.306.008-2.333-.598-3.052C43.43.418 42.247 0 40.68 0M7.775 4.43C7.519 6.126 6.233 6.126 4.99 6.126h-.708l.497-3.17a.391.391 0 0 1 .385-.332h.325c.846 0 1.645 0 2.058.486.246.291.321.723.228 1.318M7.234 0H2.545a.653.653 0 0 0-.644.556L.005 12.682a.393.393 0 0 0 .386.455h2.24c.32 0 .592-.235.642-.554l.512-3.272a.654.654 0 0 1 .644-.555h1.483c3.09 0 4.872-1.507 5.338-4.496.209-1.306.008-2.333-.598-3.052C9.985.418 8.802 0 7.234 0M18.12 8.783c-.217 1.294-1.235 2.163-2.535 2.163-.65 0-1.172-.212-1.507-.612-.332-.396-.458-.962-.352-1.59.202-1.283 1.237-2.18 2.516-2.18.638 0 1.156.214 1.497.618.344.406.48.974.381 1.6m3.13-4.407h-2.246a.392.392 0 0 0-.386.333l-.1.633-.156-.23c-.486-.71-1.57-.95-2.652-.95-2.481 0-4.6 1.897-5.013 4.556-.214 1.327.09 2.595.837 3.48.685.812 1.663 1.15 2.827 1.15 2 0 3.109-1.294 3.109-1.294l-.1.629a.394.394 0 0 0 .386.455h2.021a.654.654 0 0 0 .645-.554l1.213-7.752a.393.393 0 0 0-.386-.456m30.316 4.408c-.217 1.294-1.235 2.163-2.535 2.163-.65 0-1.172-.212-1.507-.612-.332-.396-.458-.962-.353-1.59.203-1.283 1.238-2.18 2.517-2.18.638 0 1.156.214 1.497.618.344.406.48.974.38 1.6m3.13-4.407H52.45a.392.392 0 0 0-.386.333l-.1.633-.157-.23c-.485-.71-1.57-.95-2.651-.95-2.481 0-4.6 1.897-5.013 4.556-.214 1.327.09 2.595.837 3.48.685.812 1.663 1.15 2.827 1.15 2 0 3.109-1.294 3.109-1.294l-.1.629a.394.394 0 0 0 .386.455h2.021a.654.654 0 0 0 .645-.554L55.08 4.83a.393.393 0 0 0-.386-.456m-21.486.001h-2.257a.648.648 0 0 0-.538.288l-3.114 4.625-1.32-4.444a.653.653 0 0 0-.624-.469h-2.217a.393.393 0 0 0-.37.521l2.484 7.358-2.338 3.327a.395.395 0 0 0 .32.621h2.254a.65.65 0 0 0 .536-.282l7.505-10.926a.395.395 0 0 0-.32-.619M57.34.333l-1.924 12.35a.393.393 0 0 0 .386.455h1.936c.32 0 .594-.235.643-.555L60.279.456A.393.393 0 0 0 59.892 0h-2.165a.391.391 0 0 0-.386.332" fill="#FFF" fill-rule="evenodd"/></svg>